<svg width="643" height="176" viewBox="0 0 643 176" fill="none" xmlns="http://www.w3.org/2000/svg">
<g clip-path="url(#clip0_45_2)">
<circle cx="24" cy="56" r="20" stroke="white" stroke-width="8"/>
<circle cx="120" cy="24" r="20" stroke="white" stroke-width="8"/>
<circle cx="24" cy="120" r="20" stroke="white" stroke-width="8"/>
<circle cx="120" cy="88" r="20" stroke="white" stroke-width="8"/>
<circle cx="216" cy="88" r="20" stroke="white" stroke-width="8"/>
<circle cx="120" cy="152" r="20" stroke="white" stroke-width="8"/>
<line x1="41.0929" y1="52.4839" x2="100.093" y2="20.4839" stroke="white" stroke-width="8"/>
<line x1="44.6552" y1="128.359" x2="99.6552" y2="153.359" stroke="white" stroke-width="8"/>
<line x1="44.8147" y1="52.4353" x2="99.8147" y2="80.4353" stroke="white" stroke-width="8"/>
<line x1="46.0085" y1="123.531" x2="100.009" y2="92.531" stroke="white" stroke-width="8"/>
<line x1="44.4333" y1="57.9475" x2="99.4333" y2="149.948" stroke="white" stroke-width="8"/>
<line y1="-4" x2="107.187" y2="-4" transform="matrix(0.513123 -0.858315 -0.858315 -0.513123 43 116)" stroke="white" stroke-width="8"/>
<line x1="139.729" y1="21.0758" x2="199.729" y2="77.0758" stroke="white" stroke-width="8"/>
<line x1="141.362" y1="148.993" x2="198.362" y2="98.993" stroke="white" stroke-width="8"/>
<line x1="141" y1="88" x2="195" y2="88" stroke="white" stroke-width="8"/>
<path d="M272.969 51.75V120H263.922V51.75H272.969ZM314.172 51.75L285.812 83.5781L269.875 100.125L268.375 90.4688L280.375 77.25L303.297 51.75H314.172ZM305.453 120L280.188 86.7188L285.578 79.5469L316.234 120H305.453ZM333.906 51.75V120H324.859V51.75H333.906ZM367.094 87.4219V94.5469H344.219V87.4219H367.094ZM413.266 102.75C413.266 101.156 413.016 99.75 412.516 98.5312C412.047 97.2812 411.203 96.1562 409.984 95.1562C408.797 94.1562 407.141 93.2031 405.016 92.2969C402.922 91.3906 400.266 90.4688 397.047 89.5312C393.672 88.5312 390.625 87.4219 387.906 86.2031C385.188 84.9531 382.859 83.5312 380.922 81.9375C378.984 80.3438 377.5 78.5156 376.469 76.4531C375.438 74.3906 374.922 72.0312 374.922 69.375C374.922 66.7188 375.469 64.2656 376.562 62.0156C377.656 59.7656 379.219 57.8125 381.25 56.1562C383.312 54.4688 385.766 53.1562 388.609 52.2188C391.453 51.2812 394.625 50.8125 398.125 50.8125C403.25 50.8125 407.594 51.7969 411.156 53.7656C414.75 55.7031 417.484 58.25 419.359 61.4062C421.234 64.5312 422.172 67.875 422.172 71.4375H413.172C413.172 68.875 412.625 66.6094 411.531 64.6406C410.438 62.6406 408.781 61.0781 406.562 59.9531C404.344 58.7969 401.531 58.2188 398.125 58.2188C394.906 58.2188 392.25 58.7031 390.156 59.6719C388.062 60.6406 386.5 61.9531 385.469 63.6094C384.469 65.2656 383.969 67.1562 383.969 69.2812C383.969 70.7188 384.266 72.0312 384.859 73.2188C385.484 74.375 386.438 75.4531 387.719 76.4531C389.031 77.4531 390.688 78.375 392.688 79.2188C394.719 80.0625 397.141 80.875 399.953 81.6562C403.828 82.75 407.172 83.9688 409.984 85.3125C412.797 86.6562 415.109 88.1719 416.922 89.8594C418.766 91.5156 420.125 93.4062 421 95.5312C421.906 97.625 422.359 100 422.359 102.656C422.359 105.438 421.797 107.953 420.672 110.203C419.547 112.453 417.938 114.375 415.844 115.969C413.75 117.562 411.234 118.797 408.297 119.672C405.391 120.516 402.141 120.938 398.547 120.938C395.391 120.938 392.281 120.5 389.219 119.625C386.188 118.75 383.422 117.438 380.922 115.688C378.453 113.938 376.469 111.781 374.969 109.219C373.5 106.625 372.766 103.625 372.766 100.219H381.766C381.766 102.562 382.219 104.578 383.125 106.266C384.031 107.922 385.266 109.297 386.828 110.391C388.422 111.484 390.219 112.297 392.219 112.828C394.25 113.328 396.359 113.578 398.547 113.578C401.703 113.578 404.375 113.141 406.562 112.266C408.75 111.391 410.406 110.141 411.531 108.516C412.688 106.891 413.266 104.969 413.266 102.75ZM453.812 69.2812V75.9375H426.391V69.2812H453.812ZM435.672 56.9531H444.344V107.438C444.344 109.156 444.609 110.453 445.141 111.328C445.672 112.203 446.359 112.781 447.203 113.062C448.047 113.344 448.953 113.484 449.922 113.484C450.641 113.484 451.391 113.422 452.172 113.297C452.984 113.141 453.594 113.016 454 112.922L454.047 120C453.359 120.219 452.453 120.422 451.328 120.609C450.234 120.828 448.906 120.938 447.344 120.938C445.219 120.938 443.266 120.516 441.484 119.672C439.703 118.828 438.281 117.422 437.219 115.453C436.188 113.453 435.672 110.766 435.672 107.391V56.9531ZM495.016 108.281V69.2812H503.734V120H495.438L495.016 108.281ZM496.656 97.5938L500.266 97.5C500.266 100.875 499.906 104 499.188 106.875C498.5 109.719 497.375 112.188 495.812 114.281C494.25 116.375 492.203 118.016 489.672 119.203C487.141 120.359 484.062 120.938 480.438 120.938C477.969 120.938 475.703 120.578 473.641 119.859C471.609 119.141 469.859 118.031 468.391 116.531C466.922 115.031 465.781 113.078 464.969 110.672C464.188 108.266 463.797 105.375 463.797 102V69.2812H472.469V102.094C472.469 104.375 472.719 106.266 473.219 107.766C473.75 109.234 474.453 110.406 475.328 111.281C476.234 112.125 477.234 112.719 478.328 113.062C479.453 113.406 480.609 113.578 481.797 113.578C485.484 113.578 488.406 112.875 490.562 111.469C492.719 110.031 494.266 108.109 495.203 105.703C496.172 103.266 496.656 100.562 496.656 97.5938ZM548.922 110.156V48H557.641V120H549.672L548.922 110.156ZM514.797 95.2031V94.2188C514.797 90.3438 515.266 86.8281 516.203 83.6719C517.172 80.4844 518.531 77.75 520.281 75.4688C522.062 73.1875 524.172 71.4375 526.609 70.2188C529.078 68.9688 531.828 68.3438 534.859 68.3438C538.047 68.3438 540.828 68.9062 543.203 70.0312C545.609 71.125 547.641 72.7344 549.297 74.8594C550.984 76.9531 552.312 79.4844 553.281 82.4531C554.25 85.4219 554.922 88.7812 555.297 92.5312V96.8438C554.953 100.562 554.281 103.906 553.281 106.875C552.312 109.844 550.984 112.375 549.297 114.469C547.641 116.562 545.609 118.172 543.203 119.297C540.797 120.391 537.984 120.938 534.766 120.938C531.797 120.938 529.078 120.297 526.609 119.016C524.172 117.734 522.062 115.938 520.281 113.625C518.531 111.312 517.172 108.594 516.203 105.469C515.266 102.312 514.797 98.8906 514.797 95.2031ZM523.516 94.2188V95.2031C523.516 97.7344 523.766 100.109 524.266 102.328C524.797 104.547 525.609 106.5 526.703 108.188C527.797 109.875 529.188 111.203 530.875 112.172C532.562 113.109 534.578 113.578 536.922 113.578C539.797 113.578 542.156 112.969 544 111.75C545.875 110.531 547.375 108.922 548.5 106.922C549.625 104.922 550.5 102.75 551.125 100.406V89.1094C550.75 87.3906 550.203 85.7344 549.484 84.1406C548.797 82.5156 547.891 81.0781 546.766 79.8281C545.672 78.5469 544.312 77.5312 542.688 76.7812C541.094 76.0312 539.203 75.6562 537.016 75.6562C534.641 75.6562 532.594 76.1562 530.875 77.1562C529.188 78.125 527.797 79.4688 526.703 81.1875C525.609 82.875 524.797 84.8438 524.266 87.0938C523.766 89.3125 523.516 91.6875 523.516 94.2188ZM580.562 69.2812V120H571.844V69.2812H580.562ZM571.188 55.8281C571.188 54.4219 571.609 53.2344 572.453 52.2656C573.328 51.2969 574.609 50.8125 576.297 50.8125C577.953 50.8125 579.219 51.2969 580.094 52.2656C581 53.2344 581.453 54.4219 581.453 55.8281C581.453 57.1719 581 58.3281 580.094 59.2969C579.219 60.2344 577.953 60.7031 576.297 60.7031C574.609 60.7031 573.328 60.2344 572.453 59.2969C571.609 58.3281 571.188 57.1719 571.188 55.8281ZM592.188 95.2031V94.125C592.188 90.4688 592.719 87.0781 593.781 83.9531C594.844 80.7969 596.375 78.0625 598.375 75.75C600.375 73.4062 602.797 71.5938 605.641 70.3125C608.484 69 611.672 68.3438 615.203 68.3438C618.766 68.3438 621.969 69 624.812 70.3125C627.688 71.5938 630.125 73.4062 632.125 75.75C634.156 78.0625 635.703 80.7969 636.766 83.9531C637.828 87.0781 638.359 90.4688 638.359 94.125V95.2031C638.359 98.8594 637.828 102.25 636.766 105.375C635.703 108.5 634.156 111.234 632.125 113.578C630.125 115.891 627.703 117.703 624.859 119.016C622.047 120.297 618.859 120.938 615.297 120.938C611.734 120.938 608.531 120.297 605.688 119.016C602.844 117.703 600.406 115.891 598.375 113.578C596.375 111.234 594.844 108.5 593.781 105.375C592.719 102.25 592.188 98.8594 592.188 95.2031ZM600.859 94.125V95.2031C600.859 97.7344 601.156 100.125 601.75 102.375C602.344 104.594 603.234 106.562 604.422 108.281C605.641 110 607.156 111.359 608.969 112.359C610.781 113.328 612.891 113.812 615.297 113.812C617.672 113.812 619.75 113.328 621.531 112.359C623.344 111.359 624.844 110 626.031 108.281C627.219 106.562 628.109 104.594 628.703 102.375C629.328 100.125 629.641 97.7344 629.641 95.2031V94.125C629.641 91.625 629.328 89.2656 628.703 87.0469C628.109 84.7969 627.203 82.8125 625.984 81.0938C624.797 79.3438 623.297 77.9688 621.484 76.9688C619.703 75.9688 617.609 75.4688 615.203 75.4688C612.828 75.4688 610.734 75.9688 608.922 76.9688C607.141 77.9688 605.641 79.3438 604.422 81.0938C603.234 82.8125 602.344 84.7969 601.75 87.0469C601.156 89.2656 600.859 91.625 600.859 94.125Z" fill="white"/>
</g>
<defs>
<clipPath id="clip0_45_2">
<rect width="643" height="176" fill="white"/>
</clipPath>
</defs>
</svg>
